HIERARCHY
ROOT Hips
{
	OFFSET 0.000000 0.000000 0.000000 
	CHANNELS 6 Xposition Yposition Zposition Yrotation Zrotation Xrotation 
	JOINT Lumbar
	{
		OFFSET 0.000000 0.000000 0.000000 
		CHANNELS 3 Zrotation Xrotation Yrotation
		JOINT Neck
		{
			OFFSET 0.000000 0.445665 0.000000 
			CHANNELS 3 Zrotation Xrotation Yrotation
			End Site
			{
				OFFSET 0.000000 0.227535 0.000000 
			}
		}
		JOINT RightShoulder
		{
			OFFSET 0.019635 0.377685 0.194865 
			CHANNELS 3 Zrotation Xrotation Yrotation
			JOINT RightElbow
			{
				OFFSET 0.000000 -0.243375 0.000000 
				CHANNELS 2 Zrotation Yrotation
				JOINT RightWrist
				{
					OFFSET 0.000000 -0.264825 0.000000 
					CHANNELS 2 Zrotation Xrotation
					End Site
					{
						OFFSET 0.006600 -0.176220 0.000990 
					}
				}
			}
		}
		JOINT LeftShoulder
		{
			OFFSET 0.019635 0.377685 -0.194865 
			CHANNELS 3 Zrotation Xrotation Yrotation
			JOINT LeftElbow
			{
				OFFSET 0.000000 -0.243375 0.000000 
				CHANNELS 2 Zrotation Yrotation
				JOINT LeftWrist
				{
					OFFSET 0.000000 -0.264825 0.000000 
					CHANNELS 2 Zrotation Xrotation
					End Site
					{
						OFFSET 0.006600 -0.176220 -0.000990 
					}
				}
			}
		}
	}
	JOINT RightHip
	{
		OFFSET 0.052140 -0.069960 0.075570 
		CHANNELS 3 Zrotation Xrotation Yrotation
		JOINT RightKnee
		{
			OFFSET 0.000000 -0.402270 0.000000 
			CHANNELS 1 Zrotation
			JOINT RightAnkle
			{
				OFFSET 0.000000 -0.404085 0.000000 
				CHANNELS 3 Zrotation Xrotation Yrotation
				End Site
				{
					OFFSET 0.204105 -0.089430 0.008415 
				}
			}
		}
	}
	JOINT LeftHip
	{
		OFFSET 0.052140 -0.069960 -0.075570 
		CHANNELS 3 Zrotation Xrotation Yrotation
		JOINT LeftKnee
		{
			OFFSET 0.000000 -0.402270 0.000000 
			CHANNELS 1 Zrotation
			JOINT LeftAnkle
			{
				OFFSET 0.000000 -0.404085 0.000000 
				CHANNELS 3 Zrotation Xrotation Yrotation
				End Site
				{
					OFFSET 0.204105 -0.089430 -0.008415 
				}
			}
		}
	}
}
MOTION
Frames: 13
Frame Time: 0.02
0.09527 -0.00051 0.2364 -175.06661 -26.41924 9.06789 43.34013 3.21545 6.66978 -10.25211 -17.47711 -2.11941 -61.82819 -67.39325 36.62787 116.9206 108.18876 -34.42986 -6.41986 -9.26207 118.75754 -3.307 24.20542 -116.15945 -11.05639 13.96131 37.08163 -24.96596 9.32532 -30.74922 -9.35306 -4.077 -4.36666 34.66991 -7.47902 24.9668 -28.09308 -6.5663 0.36835 2.43051
0.09622 -0.00043 0.23591 -175.12465 -26.38017 9.06961 43.17815 3.19006 6.66019 -10.32949 -17.52351 -2.11944 -61.83948 -67.39133 36.70726 116.92982 108.14443 -34.58591 -6.35959 -9.09948 118.52509 -3.49288 24.26688 -113.3816 -10.21118 14.27427 37.15104 -24.98521 9.2051 -30.78196 -9.33289 -4.06344 -4.35782 34.68741 -7.43653 25.01099 -28.10585 -6.57158 0.36383 2.42906
0.09721 -0.0003 0.23537 -175.18511 -26.36306 9.0618 43.01578 3.1712 6.6581 -10.40284 -17.56753 -2.11946 -61.84052 -67.38517 36.80266 116.94237 108.07238 -34.73815 -6.29684 -8.93011 118.28322 -3.70219 24.35498 -110.0465 -9.21424 14.65842 37.24562 -25.00941 9.02301 -30.80377 -9.31076 -4.04548 -4.34621 34.72915 -7.37946 25.06022 -28.11482 -6.58025 0.35643 2.42663
0.09819 -0.00018 0.23485 -175.243 -26.33705 9.05757 42.85496 3.14898 6.65081 -10.47766 -17.61124 -2.11949 -61.84393 -67.38397 36.89206 116.95412 108.00884 -34.88663 -6.23568 -8.76896 118.05039 -3.89948 24.42993 -107.06217 -8.31364 14.99996 37.32713 -25.02747 8.87897 -30.82905 -9.29085 -4.03027 -4.33637 34.76045 -7.32901 25.10468 -28.12461 -6.58732 0.35042 2.4247
0.09917 -8e-05 0.23433 -175.30677 -26.30639 9.05691 42.68793 3.12808 6.65143 -10.55422 -17.66083 -2.11952 -61.84942 -67.37387 36.98618 116.9629 107.94419 -35.05045 -6.16952 -8.58568 117.79614 -4.10217 24.50964 -103.66214 -7.29598 15.38542 37.41535 -25.06131 8.69644 -30.86085 -9.26561 -4.01217 -4.32451 34.78932 -7.27869 25.16024 -28.1384 -6.59471 0.34401 2.42252
0.10014 6e-05 0.23379 -175.35898 -26.29082 9.04639 42.53383 3.10615 6.63735 -10.62611 -17.69764 -2.11954 -61.84973 -67.38024 37.07171 116.97863 107.8795 -35.18335 -6.11431 -8.44763 117.58503 -4.29802 24.58546 -100.99503 -6.48613 15.69616 37.49608 -25.06427 8.57619 -30.87646 -9.25069 -3.9988 -4.31606 34.82929 -7.22458 25.1938 -28.14294 -6.60222 0.33779 2.42063
0.10104 0.0003 0.23321 -175.37898 -26.30966 9.01086 42.41653 3.07939 6.57956 -10.686 -17.69941 -2.11954 -61.85576 -67.42723 37.11248 117.01292 107.85833 -35.24592 -6.09056 -8.42897 117.49234 -4.48548 24.6461 -100.51495 -6.29399 15.78196 37.54461 -24.97375 8.66674 -30.84923 -9.26726 -4.0013 -4.31879 34.89039 -7.16397 25.16329 -28.12234 -6.6093 0.3327 2.41979
0.10191 0.00058 0.23261 -175.38732 -26.34332 8.96572 42.31218 3.0515 6.50702 -10.74121 -17.68848 -2.11954 -61.8557 -67.49107 37.14495 117.054 107.83573 -35.27676 -6.07832 -8.45734 117.44403 -4.66252 24.70154 -100.78774 -6.3153 15.79016 37.58574 -24.85322 8.81797 -30.80621 -9.29384 -4.00842 -4.32485 34.96247 -7.10005 25.11068 -28.09263 -6.61636 0.32796 2.41928
0.1028 0.00084 0.23203 -175.40081 -26.37135 8.92492 42.20127 3.02437 6.44184 -10.79876 -17.68354 -2.11955 -61.84725 -67.5509 37.19167 117.09191 107.79086 -35.31341 -6.06076 -8.46885 117.37759 -4.83395 24.75791 -100.69901 -6.23471 15.83464 37.63366 -24.75108 8.92511 -30.77092 -9.31413 -4.01224 -4.32866 35.03177 -7.03724 25.06952 -28.06743 -6.6234 0.32315 2.41862
0.10368 0.00112 0.23141 -175.41481 -26.39526 8.88372 42.09304 2.99632 6.37361 -10.85576 -17.67749 -2.11955 -61.88224 -67.59671 37.19768 117.13051 107.83538 -35.38368 -6.0431 -8.46112 117.30243 -5.04978 24.82106 -100.67197 -6.16928 15.87761 37.66778 -24.62933 9.0979 -30.73286 -9.34152 -4.02083 -4.33543 35.09245 -6.97521 25.02286 -28.04056 -6.63073 0.31781 2.4179
0.10458 0.00138 0.23086 -175.42519 -26.43125 8.84144 41.9825 2.96995 6.30879 -10.91224 -17.6709 -2.11955 -61.8294 -67.67397 37.28281 117.16898 107.70132 -35.37951 -6.02882 -8.50468 117.25583 -5.17041 24.86877 -100.70317 -6.12517 15.90402 37.72882 -24.54091 9.15156 -30.697 -9.35674 -4.02079 -4.33695 35.17354 -6.91141 24.98202 -28.01504 -6.63734 0.31376 2.41743
0.10552 0.00157 0.23049 -175.42647 -26.49475 8.79634 41.86056 2.9476 6.25181 -10.97321 -17.66508 -2.11956 -61.50179 -67.8494 37.61923 117.20752 107.00973 -35.15248 -6.01761 -8.67842 117.27946 -5.03103 24.87257 -100.70703 -6.08598 15.90587 37.86409 -24.5547 8.84098 -30.67093 -9.33402 -3.99466 -4.32235 35.30685 -6.83959 24.96585 -27.99559 -6.64255 0.3125 2.41729
0.10648 0.00175 0.2302 -175.42496 -26.57025 8.75097 41.736 2.92713 6.20008 -11.03264 -17.65948 -2.11956 -61.09192 -68.0532 38.03087 117.24527 106.14976 -34.85667 -6.00988 -8.90194 117.32977 -4.79673 24.86119 -100.746 -6.06151 15.89265 38.02713 -24.6026 8.41245 -30.64773 -9.29906 -3.95991 -4.30249 35.46051 -6.76688 24.95602 -27.97779 -6.64692 0.31264 2.41744
